Coordinates
version=1
nRows=14
nColumns=63
inDegrees=yes

Units are S.I. units (second, meters, Newtons, ...)
If the header above contains a line with 'inDegrees', this indicates whether rotational values are in degrees (yes) or radians (no).

endheader
time	pelvis_tilt	pelvis_list	pelvis_rotation	pelvis_tx	pelvis_ty	pelvis_tz	hip_flexion_r	hip_adduction_r	hip_rotation_r	knee_angle_r	knee_angle_r_beta	ankle_angle_r	subtalar_angle_r	mtp_angle_r	hip_flexion_l	hip_adduction_l	hip_rotation_l	knee_angle_l	knee_angle_l_beta	ankle_angle_l	subtalar_angle_l	mtp_angle_l	L5_S1_Flex_Ext	L5_S1_Lat_Bending	L5_S1_axial_rotation	L4_L5_Flex_Ext	L4_L5_Lat_Bending	L4_L5_axial_rotation	L3_L4_Flex_Ext	L3_L4_Lat_Bending	L3_L4_axial_rotation	L2_L3_Flex_Ext	L2_L3_Lat_Bending	L2_L3_axial_rotation	L1_L2_Flex_Ext	L1_L2_Lat_Bending	L1_L2_axial_rotation	L1_T12_Flex_Ext	L1_T12_Lat_Bending	L1_T12_axial_rotation	Abs_r3	Abs_r2	Abs_r1	Abs_t1	Abs_t2	neck_flexion	neck_bending	neck_rotation	arm_flex_r	arm_add_r	arm_rot_r	elbow_flex_r	pro_sup_r	wrist_flex_r	wrist_dev_r	arm_flex_l	arm_add_l	arm_rot_l	elbow_flex_l	pro_sup_l	wrist_flex_l	wrist_dev_l
8.500000	3.952737	-7.160743	88.725071	0.201695	0.387572	0.903706	3.909138	6.332677	-2.050623	8.438855	0.147286	21.705130	-16.501559	0.000000	4.230103	-5.897701	9.039440	5.019285	0.087603	33.555672	3.353085	0.000000	-0.021692	-0.926074	-0.658934	-0.040284	-1.231679	-0.700118	-0.035638	-2.251657	-0.700118	-0.024792	-2.251657	-0.576568	-0.020143	-1.888450	-0.535384	-0.012395	-1.434489	-0.494201	-0.154944	-10.475936	-3.664796	0.000000	0.000000	20.444637	7.292673	-8.961794	29.739019	-18.407247	0.901193	58.045651	81.740750	-13.355744	12.188079	14.847025	-21.794269	125.760773	1.389009	10.369428	-5.466464	-1.018288
8.516667	3.779437	-6.980500	87.728458	0.203070	0.387992	0.902236	3.791594	6.190937	-1.122937	8.819650	0.153932	21.789939	-16.497521	0.000000	3.673115	-5.772541	8.386600	4.834016	0.084369	33.432586	2.813597	0.000000	-0.032854	-0.967661	-0.483331	-0.061013	-1.286990	-0.513540	-0.053976	-2.352772	-0.513540	-0.037549	-2.352772	-0.422915	-0.030508	-1.973255	-0.392707	-0.018773	-1.498907	-0.362499	-0.234672	-10.946379	-2.688144	0.000000	0.000000	19.834532	8.062462	-7.491810	29.966820	-18.089587	1.432417	58.008762	82.747620	-13.164963	13.610419	14.501540	-21.999570	125.085428	1.378597	10.218464	-5.721265	-1.362291
8.533333	3.617170	-6.819917	86.781036	0.204366	0.388333	0.900861	3.695119	6.055920	-0.285733	9.189087	0.160380	21.935737	-16.429104	0.000000	3.168593	-5.654687	7.683625	4.678424	0.081654	33.299700	2.364143	0.000000	-0.047920	-1.006882	-0.314534	-0.088993	-1.339153	-0.334192	-0.078728	-2.448133	-0.334192	-0.054768	-2.448133	-0.275217	-0.044499	-2.053234	-0.255559	-0.027382	-1.559660	-0.235900	-0.342290	-11.390051	-1.749341	0.000000	0.000000	19.273880	8.591063	-6.313942	30.084730	-17.799205	1.852033	58.219808	83.598513	-12.623544	15.216340	14.194350	-22.194015	124.672898	1.349311	10.015786	-5.940105	-1.666606
8.550000	3.459368	-6.676780	85.862884	0.205592	0.388584	0.899664	3.625099	5.922916	0.489392	9.557056	0.166802	22.137343	-16.273726	0.000000	2.707558	-5.537627	6.964396	4.543559	0.079300	33.153571	1.949269	0.000000	-0.068070	-1.044665	-0.149388	-0.126413	-1.389405	-0.158725	-0.111833	-2.539999	-0.158725	-0.077798	-2.539999	-0.130715	-0.063210	-2.130282	-0.121378	-0.038895	-1.618187	-0.112041	-0.486219	-11.817463	-0.830854	0.000000	0.000000	18.826945	8.881980	-5.388148	30.108018	-17.517557	2.143142	58.621221	84.205248	-11.763762	16.809359	13.952340	-22.377520	124.564554	1.300594	9.747222	-6.123609	-1.891798
8.566667	3.335666	-6.565693	85.059710	0.206608	0.388694	0.898671	3.591036	5.819296	1.121646	9.903529	0.172849	22.376478	-16.067816	0.000000	2.332729	-5.447034	6.313635	4.449805	0.077664	33.030925	1.593252	0.000000	-0.090621	-1.078151	0.002757	-0.168291	-1.433941	0.002929	-0.148880	-2.621417	0.002929	-0.103570	-2.621417	0.002412	-0.084150	-2.198566	0.002240	-0.051781	-1.670057	0.002068	-0.647293	-12.196264	0.015332	0.000000	0.000000	18.451964	8.892194	-4.826203	30.032854	-17.264939	2.270035	59.189632	84.507719	-10.611136	18.414979	13.788950	-22.533131	124.753895	1.233607	9.406998	-6.240094	-2.047391
8.583333	3.246338	-6.483314	84.402139	0.207371	0.388674	0.897915	3.577892	5.744907	1.620426	10.205664	0.178122	22.618047	-15.842597	0.000000	2.050102	-5.389320	5.691538	4.404194	0.076868	32.948608	1.396724	0.000000	-0.115462	-1.107394	0.127919	-0.214424	-1.472834	0.135914	-0.189693	-2.692518	0.135914	-0.131962	-2.692518	0.111929	-0.107218	-2.258198	0.103934	-0.065975	-1.715353	0.095939	-0.824734	-12.527063	0.711445	0.000000	0.000000	18.165910	8.695361	-4.509144	29.929531	-17.057542	2.459467	59.804531	84.335180	-9.444775	19.703518	13.649447	-22.669046	124.684002	1.161633	8.905526	-6.269833	-2.195264
8.600000	3.186280	-6.453002	83.898268	0.207886	0.388497	0.897444	3.620450	5.699035	2.015647	10.478559	0.182885	22.839271	-15.655571	0.000000	1.896079	-5.353334	5.221871	4.421728	0.077174	32.901028	1.209346	0.000000	-0.140104	-1.133484	0.231842	-0.260186	-1.507533	0.246332	-0.230176	-2.755952	0.246332	-0.160124	-2.755952	0.202861	-0.130100	-2.311400	0.188371	-0.080055	-1.755766	0.173881	-1.000746	-12.822193	1.289434	0.000000	0.000000	17.996720	8.251568	-4.529098	29.770699	-16.882349	2.597723	60.485719	83.506073	-8.226825	20.732984	13.563105	-22.784419	124.478145	1.084054	8.293290	-6.208751	-2.331349
8.616667	3.164092	-6.477294	83.626843	0.208090	0.388168	0.897242	3.709588	5.683909	2.201070	10.696530	0.186690	23.041035	-15.475151	0.000000	1.902443	-5.358089	4.766400	4.528465	0.079037	32.935826	1.326645	0.000000	-0.163683	-1.155798	0.303009	-0.303976	-1.537211	0.321947	-0.268915	-2.810206	0.321947	-0.187074	-2.810206	0.265133	-0.151996	-2.356902	0.246195	-0.093529	-1.790330	0.227257	-1.169174	-13.074613	1.685244	0.000000	0.000000	17.909028	7.592299	-4.880593	29.563412	-16.732159	2.678333	61.200100	82.542306	-7.086388	21.473140	13.522039	-22.883897	124.116275	1.007748	7.640954	-6.072582	-2.486527
8.633333	3.183352	-6.585092	83.635855	0.207934	0.387654	0.897306	3.880924	5.694022	2.148561	10.862814	0.189592	23.225559	-15.320818	0.000000	2.125368	-5.397707	4.373807	4.751524	0.082930	33.072739	1.749751	0.000000	-0.182222	-1.173772	0.335695	-0.338404	-1.561117	0.356676	-0.299372	-2.853909	0.356676	-0.208261	-2.853909	0.293733	-0.169211	-2.393556	0.272752	-0.104122	-1.818173	0.251771	-1.301592	-13.277942	1.867034	0.000000	0.000000	17.915495	6.748629	-5.540376	29.290147	-16.601134	2.706938	61.931849	81.521530	-6.256701	21.808289	13.518964	-22.970347	123.605496	0.938035	6.944836	-5.872703	-2.711544
8.650000	3.237491	-6.739653	83.814329	0.207564	0.387047	0.897648	4.104046	5.738441	1.974857	10.986695	0.191754	23.368916	-15.254901	0.000000	2.474399	-5.479284	4.006857	5.027571	0.087748	33.279458	2.393766	0.000000	-0.201111	-1.187345	0.350180	-0.373483	-1.579169	0.372067	-0.330405	-2.886911	0.372067	-0.229850	-2.886911	0.306408	-0.186752	-2.421234	0.284522	-0.114915	-1.839198	0.262635	-1.436515	-13.431487	1.947599	0.000000	0.000000	18.012082	5.756194	-6.423958	28.995670	-16.517558	2.686953	62.679328	80.468871	-5.575072	21.953352	13.570172	-23.039647	122.955210	0.872561	6.243519	-5.621424	-3.004407
8.666667	3.329572	-6.974784	84.215220	0.206926	0.386306	0.898207	4.411633	5.803621	1.603978	11.058288	0.193004	23.532432	-15.203540	0.000000	3.012823	-5.589444	3.729760	5.390730	0.094086	33.577670	3.267311	0.000000	-0.213928	-1.195879	0.334507	-0.397285	-1.590519	0.355414	-0.351462	-2.907660	0.355414	-0.244498	-2.907660	0.292694	-0.198653	-2.438636	0.271787	-0.122238	-1.852416	0.250880	-1.528065	-13.528021	1.860428	0.000000	0.000000	18.215611	4.726519	-7.402015	28.678631	-16.435224	2.660255	63.373030	79.550141	-5.375446	21.710518	13.647171	-23.100948	122.237192	0.818761	5.546875	-5.367575	-3.366807
8.683333	3.468323	-7.267520	84.816407	0.206073	0.385485	0.898953	4.780978	5.909828	1.121096	11.067500	0.193164	23.666586	-15.312395	0.000000	3.695685	-5.736062	3.597597	5.807254	0.101356	33.940965	4.276846	0.000000	-0.224942	-1.198373	0.296672	-0.417741	-1.593836	0.315214	-0.369558	-2.913724	0.315214	-0.257087	-2.913724	0.259588	-0.208882	-2.443722	0.241046	-0.128532	-1.856280	0.222504	-1.606741	-13.556235	1.650000	0.000000	0.000000	18.524362	3.721463	-8.388807	28.345675	-16.362296	2.538481	64.033480	79.130001	-5.467527	21.301618	13.771686	-23.147886	121.460603	0.773373	4.906675	-5.119424	-3.790531
8.700000	3.638881	-7.610468	85.578240	0.205045	0.384607	0.899828	5.214175	6.029959	0.443325	11.040350	0.192690	23.854687	-15.391660	0.000000	4.505655	-5.902924	3.576448	6.279002	0.109589	34.384813	5.420497	0.000000	-0.232587	-1.196384	0.236995	-0.431936	-1.591191	0.251807	-0.382116	-2.908888	0.251807	-0.265823	-2.908888	0.207371	-0.215980	-2.439667	0.192559	-0.132900	-1.853199	0.177746	-1.661342	-13.533737	1.318096	0.000000	0.000000	18.900783	2.764687	-9.333003	28.070206	-16.291378	2.484866	64.523928	78.942565	-6.032702	20.515922	13.917548	-23.192583	120.676682	0.742439	4.306411	-4.900912	-4.229724
8.716667	3.839579	-7.996191	86.435381	0.203926	0.383680	0.900784	5.698194	6.166728	-0.359445	10.971407	0.191487	24.099938	-15.436402	0.000000	5.406358	-6.088804	3.651474	6.780253	0.118338	34.893810	6.633463	0.000000	-0.235601	-1.189190	0.161103	-0.437535	-1.581623	0.171172	-0.387069	-2.891398	0.171172	-0.269269	-2.891398	0.140965	-0.218779	-2.424997	0.130897	-0.134622	-1.842056	0.120828	-1.682875	-13.452360	0.896009	0.000000	0.000000	19.346792	1.929814	-10.075106	27.901056	-16.197429	2.536604	64.797776	79.108386	-7.065686	19.428061	14.057125	-23.237415	119.927840	0.721610	3.767120	-4.732314	-4.648552
